<svg xmlns="http://www.w3.org/2000/svg" viewBox="0 0 2500 225.95"><defs><style>.cls-1{fill:#0b1b85;}.cls-2{fill:#fff;}.cls-3{fill:red;}</style></defs><title>Line-Div</title><g id="Layer_2_copy" data-name="Layer 2 copy"><path class="cls-1" d="M2302.49,94.88c-121.75-24.06-354.82-87.61-651-91.8C1317.89-1.64,1210.39,87.22,928.23,106,712.88,120.35,396.69,81.57,0,0V37.08c396.69,81,712.88,92.55,928.23,78.21,282.16-18.79,389.66-85.4,723.29-80.68,296.15,4.19,529.21,54.76,651,78.82,77.62,15.34,144.52,31.25,197.51,44.89V139.78C2447,126.14,2380.11,110.22,2302.49,94.88Z"/><path class="cls-2" d="M1651.52,34.61c-333.63-4.72-441.13,61.88-723.29,80.68C712.88,129.63,396.69,118.11,0,37.08v8.35c396.69,81,712.88,92.55,928.23,78.21,282.16-18.79,389.66-85.4,723.29-80.68,296.15,4.19,529.21,54.76,651,78.82C2380.11,137.12,2447,153,2500,166.67v-8.35c-53-13.64-119.89-29.55-197.51-44.89C2180.73,89.37,1947.67,38.8,1651.52,34.61Z"/><path class="cls-3" d="M1651.52,43c-333.63-4.72-441.13,61.88-723.29,80.68C712.88,138,396.69,126.45,0,45.42V64C396.69,144.77,712.88,145.39,928.23,131c282.16-18.79,389.66-63.14,723.29-58.42,296.15,4.19,529.21,43.63,651,67.69,77.62,15.34,144.52,31.25,197.51,44.89V166.67c-53-13.64-119.89-29.55-197.51-44.89C2180.73,97.71,1947.67,47.15,1651.52,43Z"/><path class="cls-2" d="M1651.52,72.63c-333.63-4.72-441.13,39.63-723.29,58.42C712.88,145.39,396.69,144.77,0,64V226H2500V185.22c-53-13.64-119.89-29.55-197.51-44.89C2180.73,116.26,1947.67,76.82,1651.52,72.63Z"/></g><g id="Layer_2_copy_4" data-name="Layer 2 copy 4"><path class="cls-1" d="M2302.49,94.88c-121.75-24.06-354.82-87.61-651-91.8C1317.89-1.64,1210.39,87.22,928.23,106,712.88,120.35,396.69,81.57,0,0V37.08c396.69,81,712.88,92.55,928.23,78.21,282.16-18.79,389.66-85.4,723.29-80.68,296.15,4.19,529.21,54.76,651,78.82,77.62,15.34,144.52,31.25,197.51,44.89V139.78C2447,126.14,2380.11,110.22,2302.49,94.88Z"/><path class="cls-2" d="M1651.52,34.61c-333.63-4.72-441.13,61.88-723.29,80.68C712.88,129.63,396.69,118.11,0,37.08v8.35c396.69,81,712.88,92.55,928.23,78.21,282.16-18.79,389.66-85.4,723.29-80.68,296.15,4.19,529.21,54.76,651,78.82C2380.11,137.12,2447,153,2500,166.67v-8.35c-53-13.64-119.89-29.55-197.51-44.89C2180.73,89.37,1947.67,38.8,1651.52,34.61Z"/><path class="cls-3" d="M1651.52,43c-333.63-4.72-441.13,61.88-723.29,80.68C712.88,138,396.69,126.45,0,45.42V64C396.69,144.77,712.88,145.39,928.23,131c282.16-18.79,389.66-63.14,723.29-58.42,296.15,4.19,529.21,43.63,651,67.69,77.62,15.34,144.52,31.25,197.51,44.89V166.67c-53-13.64-119.89-29.55-197.51-44.89C2180.73,97.71,1947.67,47.15,1651.52,43Z"/><path class="cls-2" d="M1651.52,72.63c-333.63-4.72-441.13,39.63-723.29,58.42C712.88,145.39,396.69,144.77,0,64V226H2500V185.22c-53-13.64-119.89-29.55-197.51-44.89C2180.73,116.26,1947.67,76.82,1651.52,72.63Z"/></g><g id="Layer_2_copy_5" data-name="Layer 2 copy 5"><path class="cls-1" d="M2302.49,94.88c-121.75-24.06-354.82-87.61-651-91.8C1317.89-1.64,1210.39,87.22,928.23,106,712.88,120.35,396.69,81.57,0,0V37.08c396.69,81,712.88,92.55,928.23,78.21,282.16-18.79,389.66-85.4,723.29-80.68,296.15,4.19,529.21,54.76,651,78.82,77.62,15.34,144.52,31.25,197.51,44.89V139.78C2447,126.14,2380.11,110.22,2302.49,94.88Z"/><path class="cls-2" d="M1651.52,34.61c-333.63-4.72-441.13,61.88-723.29,80.68C712.88,129.63,396.69,118.11,0,37.08v8.35c396.69,81,712.88,92.55,928.23,78.21,282.16-18.79,389.66-85.4,723.29-80.68,296.15,4.19,529.21,54.76,651,78.82C2380.11,137.12,2447,153,2500,166.67v-8.35c-53-13.64-119.89-29.55-197.51-44.89C2180.73,89.37,1947.67,38.8,1651.52,34.61Z"/><path class="cls-3" d="M1651.52,43c-333.63-4.72-441.13,61.88-723.29,80.68C712.88,138,396.69,126.45,0,45.42V64C396.69,144.77,712.88,145.39,928.23,131c282.16-18.79,389.66-63.14,723.29-58.42,296.15,4.19,529.21,43.63,651,67.69,77.62,15.34,144.52,31.25,197.51,44.89V166.67c-53-13.64-119.89-29.55-197.51-44.89C2180.73,97.71,1947.67,47.15,1651.52,43Z"/><path class="cls-2" d="M1651.52,72.63c-333.63-4.72-441.13,39.63-723.29,58.42C712.88,145.39,396.69,144.77,0,64V226H2500V185.22c-53-13.64-119.89-29.55-197.51-44.89C2180.73,116.26,1947.67,76.82,1651.52,72.63Z"/></g></svg>